<svg xmlns="http://www.w3.org/2000/svg"
     width="1200"
     height="630"
     viewBox="0 0 1200 630"
     role="img"
     aria-labelledby="title-pt desc-pt">

  <title id="title-pt">gsantana.dev cartão social</title>
  <desc id="desc-pt">Cartão social escuro do gsantana.dev com brilho verde e roxo inspirado no site.</desc>

  <defs>
    <linearGradient id="bg-pt" x1="0" y1="0" x2="1" y2="1">
      <stop offset="0%" stop-color="#04060c"/>
      <stop offset="100%" stop-color="#090d18"/>
    </linearGradient>

    <!-- Left green glow -->
    <radialGradient id="glow-left-pt" cx="0.08" cy="0.28" r="0.45">
      <stop offset="0%" stop-color="#5eead4" stop-opacity="0.20"/>
      <stop offset="45%" stop-color="#2dd4bf" stop-opacity="0.12"/>
      <stop offset="100%" stop-color="#5eead4" stop-opacity="0"/>
    </radialGradient>

    <!-- Right purple glow -->
    <radialGradient id="glow-right-pt" cx="0.92" cy="0.75" r="0.42">
      <stop offset="0%" stop-color="#8b5cf6" stop-opacity="0.18"/>
      <stop offset="50%" stop-color="#7c3aed" stop-opacity="0.12"/>
      <stop offset="100%" stop-color="#8b5cf6" stop-opacity="0"/>
    </radialGradient>

    <!-- Extra subtle purple haze -->
    <radialGradient id="glow-bottom-pt" cx="0.78" cy="1.0" r="0.55">
      <stop offset="0%" stop-color="#a78bfa" stop-opacity="0.10"/>
      <stop offset="100%" stop-color="#a78bfa" stop-opacity="0"/>
    </radialGradient>

    <linearGradient id="badge-stroke-pt" x1="0" y1="0" x2="1" y2="0">
      <stop offset="0%" stop-color="#5eead4" stop-opacity="0.70"/>
      <stop offset="100%" stop-color="#8b5cf6" stop-opacity="0.45"/>
    </linearGradient>
  </defs>

  <rect width="1200" height="630" fill="url(#bg-pt)"/>
  <rect width="1200" height="630" fill="url(#glow-left-pt)"/>
  <rect width="1200" height="630" fill="url(#glow-right-pt)"/>
  <rect width="1200" height="630" fill="url(#glow-bottom-pt)"/>

  <g opacity="0.18" stroke="#1a2232" stroke-width="1" fill="none">
    <path d="M0 78H1200M0 157H1200M0 236H1200M0 315H1200M0 394H1200M0 473H1200M0 552H1200"/>
    <path d="M120 0V630M240 0V630M360 0V630M480 0V630M600 0V630M720 0V630M840 0V630M960 0V630M1080 0V630"/>
  </g>

  <!-- Icon tile -->
  <g transform="translate(92 160)">
    <rect width="190"
          height="190"
          rx="42"
          fill="#05070d"
          stroke="#1e2433"
          stroke-width="2"/>

    <g transform="translate(95 95) scale(4.2) translate(-56 -47.5)">
      <path d="M43 61 L56 34 L69 61"
            stroke="#5eead4"
            stroke-width="5"
            fill="none"
            stroke-linecap="round"
            stroke-linejoin="round"/>
      <circle cx="56" cy="48" r="3" fill="#5eead4"/>
    </g>
  </g>

  <text x="330" y="242"
        fill="#f3f5f8"
        font-family="Inter, Arial, sans-serif"
        font-size="74"
        font-weight="700"
        letter-spacing="-1">gsantana.dev</text>

  <text x="330" y="318"
        fill="#8b93a7"
        font-family="Inter, Arial, sans-serif"
        font-size="36">IA · Engenharia de Software · Cloud</text>

  <rect x="330" y="360"
        width="778"
        height="72"
        rx="14"
        fill="#5eead4"
        fill-opacity="0.06"
        stroke="url(#badge-stroke-pt)"
        stroke-width="1.5"/>

  <text x="719" y="404"
        text-anchor="middle"
        fill="#5eead4"
        font-family="ui-monospace, SFMono-Regular, Menlo, Consolas, monospace"
        font-size="26"
        font-weight="700">Arquitetura, prática e guias direto ao ponto</text>
</svg>