<svg xmlns="http://www.w3.org/2000/svg" width="1200" height="630" aria-labelledby="title desc" role="img" viewBox="0 0 1200 630"><title id="title">Jev vs. Laya</title><desc id="desc">Editorial comparison of a hosted decision API and a self-hosted model, illustrated with branching paths.</desc><rect width="1200" height="630" fill="#111816"/><path stroke="#30433b" stroke-width="1" d="M0 110H1200M0 510H1200M80 0V630M1120 0V630"/><text x="80" y="75" fill="#b3c5bc" font-family="Consolas,monospace" font-size="22">gsantana.dev / AI</text><text x="1120" y="75" fill="#b3c5bc" font-family="Consolas,monospace" font-size="22" text-anchor="end">2026.09</text><text x="80" y="288" fill="#88edb6" font-family="Segoe UI,sans-serif" font-size="130" font-weight="700">Jev</text><text x="532" y="275" fill="#b3c5bc" font-family="Consolas,monospace" font-size="44">vs.</text><text x="710" y="288" fill="#ffad91" font-family="Segoe UI,sans-serif" font-size="130" font-weight="700">Laya</text><text x="86" y="348" fill="#b3c5bc" font-family="Consolas,monospace" font-size="24">API</text><text x="718" y="348" fill="#b3c5bc" font-family="Consolas,monospace" font-size="24">SELF-HOSTED</text><path fill="none" stroke="#88edb6" stroke-width="5" d="M96 416H340L388 382H490M340 416L388 450H490"/><path fill="none" stroke="#ffad91" stroke-width="5" d="M728 416H946L994 382H1100M946 416L994 450H1100"/><rect width="24" height="24" x="476" y="370" fill="#88edb6"/><rect width="24" height="24" x="476" y="438" fill="#111816" stroke="#88edb6" stroke-width="3"/><rect width="24" height="24" x="1088" y="370" fill="#ffad91"/><rect width="24" height="24" x="1088" y="438" fill="#111816" stroke="#ffad91" stroke-width="3"/><text x="80" y="574" fill="#eef5f0" font-family="Consolas,monospace" font-size="26">choice / score / noul</text><text x="1120" y="574" fill="#b3c5bc" font-family="Consolas,monospace" font-size="22" text-anchor="end">INPUT &gt; DECISION</text></svg>